<?xml version="1.0" encoding="utf-8"?>
<!-- Generator: Adobe Illustrator 28.1.0, SVG Export Plug-In . SVG Version: 6.00 Build 0)  -->
<svg version="1.1" xmlns="http://www.w3.org/2000/svg" xmlns:xlink="http://www.w3.org/1999/xlink" x="0px" y="0px"
	 viewBox="0 0 400 133.3" style="enable-background:new 0 0 400 133.3;" xml:space="preserve">
<style type="text/css">
	.st0{fill:#10568A;}
	.st1{fill:#2C93D0;}
	.st2{fill-rule:evenodd;clip-rule:evenodd;fill:#2C93D0;}
	.st3{fill-rule:evenodd;clip-rule:evenodd;fill:#10568A;}
	.st4{fill-rule:evenodd;clip-rule:evenodd;}
</style>
<g id="svg">
	<g id="svgg">
		<g>
			<path class="st0" d="M56.2,65.7c0-3.5,0.6-6.8,2-9.8c1.3-3.1,3.1-5.8,5.4-8c2.3-2.3,5-4.1,8.2-5.4c3.2-1.3,6.6-2,10.2-2
				c3.7,0,7.1,0.7,10.2,2c3.2,1.3,5.9,3.1,8.2,5.4c2.3,2.3,4.1,4.9,5.4,8c1.3,3.1,2,6.4,2,9.8c0,3.5-0.6,6.8-2,9.9
				c-1.3,3-3.1,5.7-5.4,8c-2.3,2.3-5,4.1-8.2,5.4c-3.2,1.3-6.6,2-10.2,2c-3.7,0-7.1-0.7-10.2-2c-3.2-1.3-5.9-3.1-8.2-5.4
				c-2.3-2.3-4.1-5-5.4-8C56.9,72.5,56.2,69.2,56.2,65.7z M69.2,65.7c0,1.8,0.3,3.5,1,5.1c0.6,1.6,1.5,3,2.6,4.2
				c1.1,1.2,2.4,2.2,4,2.9c1.6,0.7,3.3,1,5.2,1c1.9,0,3.6-0.3,5.2-1s3-1.7,4-2.9c1.1-1.2,2-2.6,2.6-4.2c0.6-1.6,1-3.3,1-5.1
				s-0.3-3.5-1-5.1c-0.6-1.6-1.5-3.1-2.6-4.2c-1.1-1.2-2.4-2.2-4-2.9s-3.3-1-5.2-1c-1.9,0-3.7,0.3-5.2,1c-1.6,0.7-2.9,1.7-4,2.9
				c-1.1,1.2-2,2.6-2.6,4.2C69.6,62.2,69.2,63.9,69.2,65.7z"/>
			<path class="st0" d="M147.7,80c-2.9,3.8-6.1,6.6-9.7,8.3c-3.6,1.7-7.7,2.6-12.3,2.6c-3.7,0-7.2-0.7-10.4-2
				c-3.2-1.3-6-3.1-8.2-5.4c-2.3-2.3-4.1-5-5.4-8c-1.3-3-2-6.3-2-9.9c0-3.5,0.7-6.8,2-9.9c1.3-3.1,3.2-5.8,5.5-8.1
				c2.3-2.3,5.1-4.1,8.2-5.4c3.2-1.3,6.6-2,10.4-2c4.2,0,8.1,0.9,11.6,2.7c3.6,1.8,6.5,4.1,8.8,7l-9.2,8.1c-1.3-1.7-2.9-3.1-4.8-4.2
				c-1.9-1.1-4-1.6-6.4-1.6c-1.9,0-3.6,0.3-5.2,1s-3,1.7-4.1,2.9c-1.2,1.2-2.1,2.6-2.8,4.2c-0.7,1.6-1,3.3-1,5.2
				c0,1.9,0.3,3.7,1,5.3c0.7,1.6,1.6,3,2.8,4.2c1.2,1.2,2.6,2.1,4.2,2.8c1.6,0.7,3.4,1,5.4,1c2.7,0,5-0.7,7-2c2-1.3,3.5-2.8,4.6-4.4
				L147.7,80z"/>
		</g>
		<g>
			<path class="st1" d="M173.1,77.3H159l-3.4,13.3h-6.8l14.1-52.7h6.4l14,52.7h-6.8L173.1,77.3z M160.5,71.4h11.1L166.2,50H166
				L160.5,71.4z"/>
			<path class="st1" d="M195.2,51.4l0.4,5.8c1-2.1,2.2-3.7,3.8-4.8s3.2-1.7,5.1-1.7c3.1,0,5.5,1.3,7.3,3.8c1.7,2.6,2.6,6.5,2.6,12
				v24.1h-6.6V66.5c0-3.7-0.5-6.3-1.4-7.8c-0.9-1.5-2.3-2.3-4.2-2.3c-1.5,0-2.8,0.4-3.9,1.3s-1.9,2.1-2.6,3.6v29.2h-6.6V51.4H195.2z
				"/>
			<path class="st1" d="M241.3,90.6c-0.3-1.2-0.5-2.2-0.7-3.2c-0.2-0.9-0.3-1.9-0.3-2.8c-0.9,1.9-2.2,3.5-3.7,4.8
				c-1.5,1.3-3.2,1.9-5.2,1.9c-3.1,0-5.5-1-7.2-3.1c-1.7-2.1-2.5-4.9-2.5-8.5c0-3.7,1.2-6.6,3.5-8.7c2.3-2.1,5.5-3.2,9.7-3.2h5.4v-4
				c0-2.4-0.5-4.3-1.4-5.6c-0.9-1.3-2.3-2-4.1-2c-1.6,0-2.9,0.6-3.8,1.7s-1.4,2.6-1.4,4.5l-6.3,0l-0.1-0.2c-0.1-3,0.9-5.7,3.2-8
				c2.2-2.3,5.2-3.5,8.8-3.5c3.5,0,6.3,1.1,8.4,3.4c2.2,2.3,3.2,5.5,3.2,9.8V82c0,1.5,0.1,3,0.3,4.4c0.2,1.4,0.4,2.8,0.8,4.2H241.3z
				 M232.8,85.7c1.8,0,3.4-0.6,4.8-1.9c1.4-1.2,2.3-2.7,2.7-4.5v-7h-5.5c-2,0-3.6,0.7-4.8,2.2s-1.7,3.2-1.7,5.2
				c0,1.8,0.4,3.3,1.2,4.3S231.4,85.7,232.8,85.7z"/>
			<path class="st1" d="M262.6,90.6H256V34.1h6.6V90.6z"/>
			<path class="st1" d="M281.9,77.1l0.5,2.6h0.2l6.9-28.3h7.2l-12.5,45.3c-0.8,2.7-1.9,5-3.3,6.9c-1.4,1.9-3.5,2.9-6.1,2.9
				c-0.5,0-1.1-0.1-1.7-0.2c-0.6-0.1-1.2-0.3-1.8-0.5l0.7-5.4c0.2,0,0.5,0.1,1,0.1c0.4,0,0.7,0.1,1,0.1c1.3,0,2.3-0.6,3.1-1.8
				c0.8-1.2,1.3-2.7,1.8-4.3l1.2-4.1l-11-38.9h7.2L281.9,77.1z"/>
			<path class="st1" d="M310.8,41.7v9.7h5.5v5.3h-5.5V80c0,2,0.3,3.5,0.8,4.3c0.5,0.9,1.3,1.3,2.2,1.3c0.4,0,0.7,0,1-0.1
				c0.3-0.1,0.7-0.2,1.1-0.3l0.7,5.1c-0.6,0.3-1.3,0.6-2.1,0.8c-0.8,0.2-1.6,0.3-2.4,0.3c-2.5,0-4.5-0.9-5.9-2.7
				c-1.4-1.8-2.1-4.7-2.1-8.6V56.6h-4.6v-5.3h4.6v-9.7H310.8z"/>
			<path class="st1" d="M330.5,41.1h-6.6v-7h6.6V41.1z M330.5,90.6h-6.6V51.4h6.6V90.6z"/>
			<path class="st1" d="M351.9,85.8c1.6,0,3-0.7,4.1-2.1c1.1-1.4,1.6-3.3,1.6-5.7h5.9l0.1,0.2c0.1,3.7-1,6.8-3.3,9.3
				c-2.3,2.5-5.1,3.8-8.3,3.8c-4.3,0-7.6-1.8-10-5.5s-3.5-8.4-3.5-14.1v-1.4c0-5.7,1.2-10.4,3.5-14.1c2.3-3.7,5.7-5.6,10-5.6
				c3.5,0,6.3,1.3,8.5,4c2.2,2.6,3.2,6.1,3.2,10.3l-0.1,0.2h-6c0-2.6-0.5-4.7-1.6-6.4c-1-1.6-2.4-2.4-4.1-2.4c-2.5,0-4.2,1.3-5.3,4
				s-1.6,6-1.6,10v1.4c0,4.1,0.5,7.5,1.6,10.1C347.7,84.5,349.5,85.8,351.9,85.8z"/>
			<path class="st1" d="M387.6,80.7c0-1.5-0.5-2.8-1.4-3.8c-0.9-1-2.6-2.2-5.2-3.5c-3.6-1.5-6.3-3.2-8.1-5c-1.8-1.8-2.7-4.1-2.7-6.9
				c0-3,1.1-5.6,3.2-7.7s5-3.2,8.5-3.2c3.6,0,6.5,1.2,8.7,3.5c2.2,2.3,3.3,5.1,3.2,8.5l-0.1,0.2h-6.3c0-1.9-0.5-3.5-1.5-4.8
				c-1-1.3-2.3-2-4-2s-3,0.5-3.9,1.6c-0.9,1.1-1.4,2.3-1.4,3.7c0,1.5,0.4,2.7,1.2,3.5c0.8,0.9,2.5,2,5.2,3.3c3.7,1.4,6.4,3.1,8.3,5
				c1.8,1.9,2.8,4.3,2.8,7.2c0,3.3-1.1,5.9-3.3,8c-2.2,2-5.2,3.1-8.8,3.1c-3.9,0-7-1.2-9.3-3.7c-2.3-2.5-3.3-5.3-3.2-8.6l0.1-0.2
				h6.1c0.1,2.5,0.7,4.4,1.9,5.5c1.2,1.1,2.7,1.7,4.5,1.7c1.7,0,3.1-0.5,4.1-1.5C387.1,83.5,387.6,82.2,387.6,80.7z"/>
		</g>
		<g>
			<path class="st0" d="M394.4,43.9h-1v3h-0.9v-3h-1v-0.7h2.8V43.9z"/>
			<path class="st0" d="M396.8,45.8L396.8,45.8l0.8-2.6h1.1v3.7h-0.9v-2.4l0,0l-0.8,2.4h-0.6l-0.8-2.3l0,0v2.3h-0.9v-3.7h1.1
				L396.8,45.8z"/>
		</g>
	</g>
	<rect x="0" y="38.5" class="st2" width="14.1" height="14.1"/>
	<rect x="19.7" y="38.6" class="st3" width="14.1" height="14.1"/>
	<rect x="39.4" y="38.3" class="st3" width="14.1" height="14.1"/>
	<rect x="0" y="58" class="st2" width="14.1" height="14.1"/>
	<rect x="19.7" y="58" class="st2" width="14.1" height="14.1"/>
	<rect x="0.2" y="77.5" class="st2" width="14.1" height="14.1"/>
	<rect x="19.7" y="77.5" class="st2" width="14.1" height="14.1"/>
</g>
<g id="Layer_2">
	<path class="st3" d="M39.4,57.9l14.1,0c0,0,0,14.2,0,32.6S33,105.6,33,105.6V94.2c0,0,6.2,0.7,6.2-2.7
		C39.2,88.3,39.4,57.9,39.4,57.9z"/>
	<path class="st4" d="M56.2,91.3"/>
</g>
</svg>
