<?xml version="1.0" encoding="utf-8"?>
<!-- Generator: Adobe Illustrator 28.1.0, SVG Export Plug-In . SVG Version: 6.00 Build 0)  -->
<svg version="1.1" xmlns="http://www.w3.org/2000/svg" xmlns:xlink="http://www.w3.org/1999/xlink" x="0px" y="0px"
	 viewBox="0 0 155 76" style="enable-background:new 0 0 155 76;" xml:space="preserve">
<style type="text/css">
	.st0{fill:#FFFFFF;}
	.st1{fill-rule:evenodd;clip-rule:evenodd;fill:#2C93D0;}
	.st2{fill-rule:evenodd;clip-rule:evenodd;fill:#FFFFFF;}
	.st3{fill-rule:evenodd;clip-rule:evenodd;}
</style>
<g id="svg">
	<g id="svgg">
		<g>
			<path class="st0" d="M60.9,31.6c0-3.5,0.6-6.8,2-9.8c1.3-3.1,3.1-5.8,5.4-8c2.3-2.3,5-4.1,8.2-5.4c3.2-1.3,6.6-2,10.2-2
				c3.7,0,7.1,0.7,10.2,2c3.2,1.3,5.9,3.1,8.2,5.4c2.3,2.3,4.1,4.9,5.4,8c1.3,3.1,2,6.4,2,9.8c0,3.5-0.6,6.8-2,9.9
				c-1.3,3-3.1,5.7-5.4,8c-2.3,2.3-5,4.1-8.2,5.4c-3.2,1.3-6.6,2-10.2,2c-3.7,0-7.1-0.7-10.2-2c-3.2-1.3-5.9-3.1-8.2-5.4
				c-2.3-2.3-4.1-5-5.4-8C61.5,38.5,60.9,35.2,60.9,31.6z M73.9,31.6c0,1.8,0.3,3.5,1,5.1c0.6,1.6,1.5,3,2.6,4.2
				c1.1,1.2,2.4,2.2,4,2.9c1.6,0.7,3.3,1,5.2,1c1.9,0,3.6-0.3,5.2-1s3-1.7,4-2.9c1.1-1.2,2-2.6,2.6-4.2c0.6-1.6,1-3.3,1-5.1
				s-0.3-3.5-1-5.1c-0.6-1.6-1.5-3.1-2.6-4.2c-1.1-1.2-2.4-2.2-4-2.9s-3.3-1-5.2-1c-1.9,0-3.7,0.3-5.2,1c-1.6,0.7-2.9,1.7-4,2.9
				c-1.1,1.2-2,2.6-2.6,4.2C74.2,28.1,73.9,29.8,73.9,31.6z"/>
			<path class="st0" d="M152.4,45.9c-2.9,3.8-6.1,6.6-9.7,8.3c-3.6,1.7-7.7,2.6-12.3,2.6c-3.7,0-7.2-0.7-10.4-2
				c-3.2-1.3-6-3.1-8.2-5.4c-2.3-2.3-4.1-5-5.4-8c-1.3-3-2-6.3-2-9.9c0-3.5,0.7-6.8,2-9.9c1.3-3.1,3.2-5.8,5.5-8.1
				c2.3-2.3,5.1-4.1,8.2-5.4c3.2-1.3,6.6-2,10.4-2c4.2,0,8.1,0.9,11.6,2.7c3.6,1.8,6.5,4.1,8.8,7l-9.2,8.1c-1.3-1.7-2.9-3.1-4.8-4.2
				c-1.9-1.1-4-1.6-6.4-1.6c-1.9,0-3.6,0.3-5.2,1s-3,1.7-4.1,2.9c-1.2,1.2-2.1,2.6-2.8,4.2c-0.7,1.6-1,3.3-1,5.2
				c0,1.9,0.3,3.7,1,5.3c0.7,1.6,1.6,3,2.8,4.2c1.2,1.2,2.6,2.1,4.2,2.8c1.6,0.7,3.4,1,5.4,1c2.7,0,5-0.7,7-2c2-1.3,3.5-2.8,4.6-4.4
				L152.4,45.9z"/>
		</g>
	</g>
	<rect x="4.6" y="4.5" class="st1" width="14.1" height="14.1"/>
	<rect x="24.4" y="4.6" class="st2" width="14.1" height="14.1"/>
	<rect x="44" y="4.3" class="st2" width="14.1" height="14.1"/>
	<rect x="4.6" y="24" class="st1" width="14.1" height="14.1"/>
	<rect x="24.4" y="24" class="st1" width="14.1" height="14.1"/>
	<rect x="4.8" y="43.4" class="st1" width="14.1" height="14.1"/>
	<rect x="24.4" y="43.5" class="st1" width="14.1" height="14.1"/>
</g>
<g id="Layer_2">
	<path class="st2" d="M44,23.9l14.1,0c0,0,0,14.2,0,32.6S37.6,71.5,37.6,71.5V60.2c0,0,6.2,0.7,6.2-2.7C43.8,54.2,44,23.9,44,23.9z"
		/>
	<path class="st3" d="M60.9,57.2"/>
</g>
</svg>
